<?xml version="1.0" encoding="utf-8"?>
<!-- Generator: Adobe Illustrator 25.4.1, SVG Export Plug-In . SVG Version: 6.00 Build 0)  -->
<svg version="1.1" id="Layer_1" xmlns="http://www.w3.org/2000/svg" xmlns:xlink="http://www.w3.org/1999/xlink" x="0px" y="0px"
	 viewBox="0 0 512 118.2" style="enable-background:new 0 0 512 118.2;" xml:space="preserve">
<style type="text/css">
	.st0{fill:#1863AD;}
</style>
<path class="st0" d="M277.9,80.1l1.7,0.7l-4.7,34.2h-92.3v-3l17.4-3.1V9.3l-17.4-3.2v-3h87.9l4.2,30l-1.6,1.2l-13.5-14.9
	C253.4,12.6,251.1,9,240.2,9h-22.6v47.2h9.3c10.5,0,14.6-4.2,17.7-16.5l1.6-5.8h2.6v49.4h-2.6l-1.6-5.5
	c-3.1-12.3-7.2-16.7-17.7-16.7h-9.3V109H245c10.4,0,12.6-2.8,17.6-9.3L277.9,80.1z M53.9,53.4c-6.5-3.2-13.3-5.6-19.5-8.4
	C21.7,39.5,18.1,33,18.1,24.6c0-11.8,7.5-19,17.2-19C47,5.6,56.9,14,66.9,34l2.8-0.4L66.7,0h-2.5L57,6c-5.5-3.6-12-5.5-18.6-5.5
	c-16.1,0-34.6,10-34.6,32.3c0,13,5.4,21.4,17.9,27.6c5.4,2.6,11.4,4.9,17.3,7.2C56,74.8,60.2,80.2,60.2,91c0,13.2-9,21.6-21.8,21.6
	c-12.5,0-24.2-7-35.7-33.2L0,79.7l2.1,38.5h2.6l7-6c6.6,3.3,16.8,5.4,25.8,5.4c16.1,0,36.9-11.9,36.9-36.3
	C74.4,68.5,68.1,60.2,53.9,53.4z M492.1,105c5.5,4.4,8.5,6,15.6,7v3h-20.4c-13.7,0-16-5.2-22.3-18.6l-9.6-20.2
	c-5.4-11.1-10.1-13.3-17.2-13.5v-5h4.1c14.2,0,26.5-8.4,26.5-25.1S456.5,7.7,442.3,7.7c-4.1-0.1-8.1,0.3-12.1,1.1v100.1l17.4,3.1v3
	H353v-3l17.4-3.2l-13-35h-38.5l-4,10.8l-8.6,23l12.6,4.3v3h-31.8v-3l12.5-4.7L340,2.1h8.2L388.8,108l11.2,3.2l12.6-2.3V9.3
	l-17.4-3.2v-3h50.9c26.7,0,42.3,11.4,42.3,28.6c0,13.4-11.5,23.9-31.6,27.9v0.9c9.3,3,16,11,19.8,18.9
	C482.5,90.8,487.1,100.6,492.1,105L492.1,105z M355.1,68.1l-16.9-45.3h-0.3l-8.5,22.9l-8.3,22.4H355.1z M136,3.1H85.2v3l17.4,3.1
	v99.6L85.2,112v3h52.3v-3l-17.4-3.2V8.8c4-0.7,8-1.1,12.1-1.1c15.6,0,24.2,10,24.2,26.7c0,18.3-8.4,27-24.6,27c-1.4,0-2.7,0-3.9-0.1
	v4.4c3.6,0.4,7.2,0.6,10.5,0.6c25.4,0,37.6-16.9,37.6-32.5C176.2,16.7,162.8,3.1,136,3.1L136,3.1z M512,11.5c0,5.2-4.2,9.4-9.3,9.4
	c-5.2,0-9.4-4.2-9.4-9.3c0-5.2,4.2-9.4,9.3-9.4c0,0,0,0,0.1,0C507.8,2.2,512,6.4,512,11.5z M511.1,11.5c0-4.7-3.8-8.5-8.5-8.5
	s-8.5,3.8-8.5,8.5s3.8,8.5,8.5,8.5S511.2,16.2,511.1,11.5z M504.4,12.2l3,3.8h-1.8l-2.8-3.6h-2.5V16H499V6.5h4.3
	c2.1,0,3.6,1.1,3.6,2.9C506.9,10.8,505.8,12,504.4,12.2L504.4,12.2z M503.1,11.2c1.4,0,2.3-0.6,2.3-1.7s-0.8-1.7-2.2-1.7h-2.8v3.4
	H503.1z"/>
</svg>
