<?xml version="1.0" encoding="utf-8"?>
<!-- Generator: Adobe Illustrator 25.4.1, SVG Export Plug-In . SVG Version: 6.00 Build 0)  -->
<svg version="1.1" id="Layer_1" xmlns="http://www.w3.org/2000/svg" xmlns:xlink="http://www.w3.org/1999/xlink" x="0px" y="0px"
	 viewBox="0 0 32 32" style="enable-background:new 0 0 32 32;" xml:space="preserve">
<style type="text/css">
	.st0{fill:#FFFFFF;}
	.st1{fill-rule:evenodd;clip-rule:evenodd;fill:#1863AD;}
</style>
<path class="st0" d="M16,0L16,0c8.8,0,16,7.2,16,16l0,0c0,8.8-7.2,16-16,16l0,0C7.2,32,0,24.8,0,16l0,0C0,7.2,7.2,0,16,0z"/>
<path class="st1" d="M16,7c-1.7,0-3,1.3-3,3v6c0,1.7,1.3,3,3,3s3-1.3,3-3v-6C19,8.3,17.7,7,16,7z M11.5,16c0-0.4-0.3-0.8-0.8-0.8
	S10,15.6,10,16c0,1.9,0.6,3.4,1.7,4.5c0.9,0.9,2.2,1.4,3.5,1.5v2.3c0,0.4,0.3,0.8,0.8,0.8s0.8-0.3,0.8-0.8V22
	c1.3-0.1,2.6-0.6,3.5-1.5c1.1-1,1.7-2.6,1.7-4.5c0-0.4-0.3-0.8-0.8-0.8s-0.8,0.3-0.8,0.8c0,1.6-0.5,2.7-1.3,3.4
	c-0.8,0.7-1.9,1.1-3.2,1.1s-2.5-0.4-3.2-1.1C12,18.7,11.5,17.6,11.5,16z"/>
</svg>
