<?xml version="1.0" encoding="utf-8"?>
<!-- Generator: Adobe Illustrator 25.4.1, SVG Export Plug-In . SVG Version: 6.00 Build 0)  -->
<svg version="1.1" id="Layer_1" xmlns="http://www.w3.org/2000/svg" xmlns:xlink="http://www.w3.org/1999/xlink" x="0px" y="0px"
	 viewBox="0 0 24 24" style="enable-background:new 0 0 24 24;" xml:space="preserve">
<style type="text/css">
	.st0{fill-rule:evenodd;clip-rule:evenodd;fill:#1863AD;}
</style>
<path class="st0" d="M12,3c-1.7,0-3,1.3-3,3v6c0,1.7,1.3,3,3,3s3-1.3,3-3V6C15,4.3,13.7,3,12,3z M7.5,12c0-0.4-0.3-0.8-0.8-0.8
	S6,11.6,6,12c0,1.9,0.6,3.4,1.7,4.5c0.9,0.9,2.2,1.4,3.5,1.5v2.3c0,0.4,0.3,0.8,0.8,0.8s0.8-0.3,0.8-0.8V18c1.3-0.1,2.6-0.6,3.5-1.5
	c1.1-1,1.7-2.6,1.7-4.5c0-0.4-0.3-0.8-0.8-0.8s-0.8,0.3-0.8,0.8c0,1.6-0.5,2.7-1.3,3.4c-0.8,0.7-1.9,1.1-3.2,1.1s-2.5-0.4-3.2-1.1
	C8,14.7,7.5,13.6,7.5,12z"/>
</svg>
